<svg width="166" height="55" viewBox="0 0 166 55" fill="none" xmlns="http://www.w3.org/2000/svg">
<line x1="5.5" y1="13.0001" x2="5.5" y2="42.0001" stroke="url(#paint0_linear_243_45)"/>
<line x1="7.5" y1="21.0001" x2="7.5" y2="42.0001" stroke="url(#paint1_linear_243_45)"/>
<line x1="9.5" y1="24.0001" x2="9.5" y2="42.0001" stroke="url(#paint2_linear_243_45)"/>
<line x1="11.5" y1="21.0001" x2="11.5" y2="42.0001" stroke="url(#paint3_linear_243_45)"/>
<line x1="13.5" y1="27.0001" x2="13.5" y2="42.0001" stroke="url(#paint4_linear_243_45)"/>
<line x1="15.5" y1="32.0001" x2="15.5" y2="42.0001" stroke="url(#paint5_linear_243_45)"/>
<line x1="17.5" y1="28.0001" x2="17.5" y2="42.0001" stroke="url(#paint6_linear_243_45)"/>
<line x1="19.5" y1="27.0001" x2="19.5" y2="42.0001" stroke="url(#paint7_linear_243_45)"/>
<line x1="21.5" y1="17.0001" x2="21.5" y2="42.0001" stroke="url(#paint8_linear_243_45)"/>
<line x1="23.5" y1="13.0001" x2="23.5" y2="42.0001" stroke="url(#paint9_linear_243_45)"/>
<line x1="25.5" y1="24.0001" x2="25.5" y2="42.0001" stroke="url(#paint10_linear_243_45)"/>
<line x1="27.5" y1="28.0001" x2="27.5" y2="42.0001" stroke="url(#paint11_linear_243_45)"/>
<line x1="29.5" y1="33.0001" x2="29.5" y2="42.0001" stroke="url(#paint12_linear_243_45)"/>
<line x1="31.5" y1="24.0001" x2="31.5" y2="42.0001" stroke="url(#paint13_linear_243_45)"/>
<line x1="33.5" y1="21.0001" x2="33.5" y2="42.0001" stroke="url(#paint14_linear_243_45)"/>
<line x1="35.5" y1="24.0001" x2="35.5" y2="42.0001" stroke="url(#paint15_linear_243_45)"/>
<line x1="37.5" y1="28.0001" x2="37.5" y2="42.0001" stroke="url(#paint16_linear_243_45)"/>
<line x1="39.5" y1="33.0001" x2="39.5" y2="42.0001" stroke="url(#paint17_linear_243_45)"/>
<line x1="41.5" y1="30.0001" x2="41.5" y2="42.0001" stroke="url(#paint18_linear_243_45)"/>
<line x1="43.5" y1="24.0001" x2="43.5" y2="42.0001" stroke="url(#paint19_linear_243_45)"/>
<line x1="45.5" y1="21.0001" x2="45.5" y2="42.0001" stroke="url(#paint20_linear_243_45)"/>
<line x1="47.5" y1="17.0001" x2="47.5" y2="42.0001" stroke="url(#paint21_linear_243_45)"/>
<line x1="49.5" y1="24.0001" x2="49.5" y2="42.0001" stroke="url(#paint22_linear_243_45)"/>
<line x1="51.5" y1="28.0001" x2="51.5" y2="42.0001" stroke="url(#paint23_linear_243_45)"/>
<line x1="53.5" y1="33.0001" x2="53.5" y2="42.0001" stroke="url(#paint24_linear_243_45)"/>
<line x1="55.5" y1="26.0001" x2="55.5" y2="42.0001" stroke="url(#paint25_linear_243_45)"/>
<line x1="57.5" y1="30.0001" x2="57.5" y2="42.0001" stroke="url(#paint26_linear_243_45)"/>
<line x1="59.5" y1="24.0001" x2="59.5" y2="42.0001" stroke="url(#paint27_linear_243_45)"/>
<line x1="61.5" y1="20.0001" x2="61.5" y2="42.0001" stroke="url(#paint28_linear_243_45)"/>
<line x1="63.5" y1="17.0001" x2="63.5" y2="42.0001" stroke="url(#paint29_linear_243_45)"/>
<line x1="65.5" y1="13.0001" x2="65.5" y2="42.0001" stroke="url(#paint30_linear_243_45)"/>
<path d="M68.8807 40.0001V32.7273H71.3381C71.9086 32.7273 72.375 32.8303 72.7372 33.0363C73.1018 33.2399 73.3717 33.5157 73.5469 33.8637C73.7221 34.2117 73.8097 34.6 73.8097 35.0285C73.8097 35.457 73.7221 35.8464 73.5469 36.1968C73.3741 36.5472 73.1065 36.8265 72.7443 37.0349C72.3821 37.2408 71.9181 37.3438 71.3523 37.3438H69.5909V36.5626H71.3239C71.7145 36.5626 72.0282 36.4951 72.2649 36.3601C72.5017 36.2252 72.6733 36.0429 72.7798 35.8133C72.8887 35.5813 72.9432 35.3197 72.9432 35.0285C72.9432 34.7373 72.8887 34.4769 72.7798 34.2472C72.6733 34.0176 72.5005 33.8377 72.2614 33.7074C72.0223 33.5749 71.705 33.5086 71.3097 33.5086H69.7614V40.0001H68.8807ZM75.1147 40.0001V34.5455H75.9244V35.3694H75.9812C76.0806 35.0995 76.2605 34.8805 76.521 34.7124C76.7814 34.5443 77.0749 34.4603 77.4016 34.4603C77.4632 34.4603 77.5401 34.4615 77.6325 34.4638C77.7248 34.4662 77.7946 34.4698 77.842 34.4745V35.3268C77.8136 35.3197 77.7485 35.309 77.6467 35.2948C77.5472 35.2782 77.4419 35.2699 77.3306 35.2699C77.0655 35.2699 76.8287 35.3256 76.6204 35.4369C76.4144 35.5458 76.2511 35.6973 76.1303 35.8914C76.012 36.0832 75.9528 36.3021 75.9528 36.5484V40.0001H75.1147ZM80.4405 40.1279C80.0949 40.1279 79.7812 40.0628 79.4995 39.9326C79.2177 39.8 78.994 39.6094 78.8283 39.3609C78.6626 39.1099 78.5797 38.8069 78.5797 38.4518C78.5797 38.1393 78.6413 37.886 78.7644 37.6918C78.8875 37.4953 79.052 37.3414 79.258 37.2302C79.464 37.1189 79.6912 37.036 79.9398 36.9816C80.1908 36.9248 80.4429 36.8798 80.6962 36.8467C81.0276 36.804 81.2963 36.7721 81.5023 36.7508C81.7106 36.7271 81.8622 36.688 81.9569 36.6336C82.0539 36.5791 82.1025 36.4844 82.1025 36.3495V36.3211C82.1025 35.9707 82.0066 35.6985 81.8148 35.5043C81.6254 35.3102 81.3378 35.2131 80.9519 35.2131C80.5518 35.2131 80.2381 35.3007 80.0108 35.4759C79.7836 35.6511 79.6238 35.8381 79.5314 36.037L78.736 35.7529C78.878 35.4215 79.0674 35.1634 79.3042 34.9788C79.5433 34.7917 79.8037 34.6615 80.0854 34.5881C80.3695 34.5124 80.6489 34.4745 80.9235 34.4745C81.0987 34.4745 81.2999 34.4958 81.5272 34.5384C81.7568 34.5787 81.9782 34.6627 82.1912 34.7905C82.4067 34.9184 82.5854 35.1113 82.7275 35.3694C82.8695 35.6274 82.9405 35.9731 82.9405 36.4063V40.0001H82.1025V39.2614H82.0598C82.003 39.3798 81.9083 39.5065 81.7757 39.6414C81.6432 39.7763 81.4668 39.8912 81.2466 39.9859C81.0265 40.0806 80.7578 40.1279 80.4405 40.1279ZM80.5684 39.3751C80.8998 39.3751 81.1792 39.31 81.4064 39.1797C81.6361 39.0495 81.8089 38.8815 81.9249 38.6755C82.0433 38.4695 82.1025 38.2529 82.1025 38.0256V37.2586C82.0669 37.3012 81.9888 37.3403 81.8681 37.3758C81.7497 37.4089 81.6124 37.4385 81.4561 37.4645C81.3023 37.4882 81.1519 37.5095 81.0051 37.5285C80.8607 37.545 80.7435 37.5592 80.6536 37.5711C80.4358 37.5995 80.2322 37.6457 80.0428 37.7096C79.8558 37.7711 79.7042 37.8646 79.5882 37.9901C79.4746 38.1132 79.4178 38.2813 79.4178 38.4944C79.4178 38.7856 79.5255 39.0057 79.7409 39.1549C79.9587 39.3017 80.2346 39.3751 80.5684 39.3751ZM84.4702 40.0001V34.5455H85.3082V40.0001H84.4702ZM84.8963 33.6364C84.733 33.6364 84.5921 33.5808 84.4737 33.4695C84.3577 33.3583 84.2997 33.2245 84.2997 33.0682C84.2997 32.912 84.3577 32.7782 84.4737 32.667C84.5921 32.5557 84.733 32.5001 84.8963 32.5001C85.0597 32.5001 85.1993 32.5557 85.3153 32.667C85.4337 32.7782 85.4929 32.912 85.4929 33.0682C85.4929 33.2245 85.4337 33.3583 85.3153 33.4695C85.1993 33.5808 85.0597 33.6364 84.8963 33.6364ZM90.7069 35.7671L89.954 35.9802C89.9067 35.8547 89.8368 35.7328 89.7445 35.6144C89.6545 35.4937 89.5314 35.3942 89.3752 35.3161C89.2189 35.238 89.0189 35.1989 88.775 35.1989C88.4412 35.1989 88.1631 35.2759 87.9405 35.4297C87.7203 35.5813 87.6103 35.7742 87.6103 36.0086C87.6103 36.2169 87.686 36.3815 87.8375 36.5022C87.9891 36.6229 88.2258 36.7235 88.5478 36.804L89.3574 37.0029C89.8451 37.1213 90.2085 37.3024 90.4476 37.5462C90.6867 37.7877 90.8063 38.099 90.8063 38.4802C90.8063 38.7927 90.7163 39.072 90.5364 39.3182C90.3588 39.5645 90.1103 39.7586 89.7907 39.9006C89.4711 40.0427 89.0994 40.1137 88.6756 40.1137C88.1193 40.1137 87.6588 39.993 87.2942 39.7515C86.9296 39.51 86.6988 39.1573 86.6017 38.6932L87.3972 38.4944C87.473 38.7879 87.6162 39.0081 87.8269 39.1549C88.04 39.3017 88.3181 39.3751 88.6614 39.3751C89.052 39.3751 89.3622 39.2922 89.5918 39.1265C89.8238 38.9584 89.9398 38.7572 89.9398 38.5228C89.9398 38.3334 89.8735 38.1748 89.7409 38.0469C89.6084 37.9167 89.4048 37.8197 89.1301 37.7557L88.2211 37.5427C87.7215 37.4243 87.3546 37.2408 87.1202 36.9922C86.8882 36.7413 86.7722 36.4276 86.7722 36.0512C86.7722 35.7434 86.8586 35.4712 87.0314 35.2344C87.2066 34.9977 87.4445 34.8119 87.7452 34.6769C88.0482 34.542 88.3915 34.4745 88.775 34.4745C89.3148 34.4745 89.7386 34.5929 90.0463 34.8296C90.3565 35.0663 90.5766 35.3788 90.7069 35.7671ZM94.3548 40.1137C93.8292 40.1137 93.3758 39.9977 92.9947 39.7657C92.6159 39.5313 92.3235 39.2046 92.1175 38.7856C91.9139 38.3642 91.8121 37.8741 91.8121 37.3154C91.8121 36.7567 91.9139 36.2643 92.1175 35.8381C92.3235 35.4096 92.61 35.0758 92.9769 34.8367C93.3462 34.5952 93.7771 34.4745 94.2695 34.4745C94.5536 34.4745 94.8342 34.5218 95.1112 34.6165C95.3881 34.7112 95.6403 34.8651 95.8675 35.0782C96.0948 35.2889 96.2759 35.5682 96.4109 35.9163C96.5458 36.2643 96.6133 36.6928 96.6133 37.2018V37.5569H92.4087V36.8324H95.761C95.761 36.5247 95.6995 36.2501 95.5763 36.0086C95.4556 35.7671 95.2828 35.5765 95.0579 35.4369C94.8353 35.2972 94.5726 35.2273 94.2695 35.2273C93.9357 35.2273 93.6469 35.3102 93.4031 35.4759C93.1616 35.6393 92.9757 35.8523 92.8455 36.1151C92.7153 36.3779 92.6502 36.6596 92.6502 36.9603V37.4432C92.6502 37.8552 92.7212 38.2044 92.8633 38.4908C93.0077 38.7749 93.2077 38.9915 93.4634 39.1407C93.7191 39.2875 94.0162 39.3609 94.3548 39.3609C94.5749 39.3609 94.7738 39.3301 94.9513 39.2685C95.1313 39.2046 95.2863 39.1099 95.4165 38.9844C95.5468 38.8566 95.6474 38.698 95.7184 38.5086L96.5281 38.7359C96.4428 39.0105 96.2996 39.252 96.0984 39.4603C95.8971 39.6663 95.6486 39.8272 95.3526 39.9432C95.0567 40.0569 94.7241 40.1137 94.3548 40.1137ZM98.0018 32.7273H99.0529L101.525 38.7643H101.61L104.081 32.7273H105.132V40.0001H104.309V34.4745H104.238L101.965 40.0001H101.169L98.8967 34.4745H98.8256V40.0001H98.0018V32.7273ZM108.39 40.1279C108.044 40.1279 107.73 40.0628 107.449 39.9326C107.167 39.8 106.943 39.6094 106.778 39.3609C106.612 39.1099 106.529 38.8069 106.529 38.4518C106.529 38.1393 106.59 37.886 106.714 37.6918C106.837 37.4953 107.001 37.3414 107.207 37.2302C107.413 37.1189 107.64 37.036 107.889 36.9816C108.14 36.9248 108.392 36.8798 108.645 36.8467C108.977 36.804 109.246 36.7721 109.452 36.7508C109.66 36.7271 109.811 36.688 109.906 36.6336C110.003 36.5791 110.052 36.4844 110.052 36.3495V36.3211C110.052 35.9707 109.956 35.6985 109.764 35.5043C109.575 35.3102 109.287 35.2131 108.901 35.2131C108.501 35.2131 108.187 35.3007 107.96 35.4759C107.733 35.6511 107.573 35.8381 107.481 36.037L106.685 35.7529C106.827 35.4215 107.017 35.1634 107.253 34.9788C107.492 34.7917 107.753 34.6615 108.035 34.5881C108.319 34.5124 108.598 34.4745 108.873 34.4745C109.048 34.4745 109.249 34.4958 109.476 34.5384C109.706 34.5787 109.927 34.6627 110.14 34.7905C110.356 34.9184 110.535 35.1113 110.677 35.3694C110.819 35.6274 110.89 35.9731 110.89 36.4063V40.0001H110.052V39.2614H110.009C109.952 39.3798 109.858 39.5065 109.725 39.6414C109.592 39.7763 109.416 39.8912 109.196 39.9859C108.976 40.0806 108.707 40.1279 108.39 40.1279ZM108.518 39.3751C108.849 39.3751 109.128 39.31 109.356 39.1797C109.585 39.0495 109.758 38.8815 109.874 38.6755C109.992 38.4695 110.052 38.2529 110.052 38.0256V37.2586C110.016 37.3012 109.938 37.3403 109.817 37.3758C109.699 37.4089 109.562 37.4385 109.405 37.4645C109.251 37.4882 109.101 37.5095 108.954 37.5285C108.81 37.545 108.693 37.5592 108.603 37.5711C108.385 37.5995 108.181 37.6457 107.992 37.7096C107.805 37.7711 107.653 37.8646 107.537 37.9901C107.424 38.1132 107.367 38.2813 107.367 38.4944C107.367 38.7856 107.475 39.0057 107.69 39.1549C107.908 39.3017 108.184 39.3751 108.518 39.3751ZM114.635 40.1137C114.124 40.1137 113.684 39.993 113.314 39.7515C112.945 39.51 112.661 39.1774 112.462 38.7536C112.263 38.3298 112.164 37.8457 112.164 37.3012C112.164 36.7472 112.266 36.2583 112.469 35.8346C112.675 35.4084 112.962 35.0758 113.328 34.8367C113.698 34.5952 114.129 34.4745 114.621 34.4745C115.005 34.4745 115.35 34.5455 115.658 34.6876C115.966 34.8296 116.218 35.0285 116.414 35.2842C116.611 35.5398 116.733 35.8381 116.78 36.179H115.942C115.878 35.9305 115.736 35.7103 115.516 35.5185C115.298 35.3244 115.005 35.2273 114.635 35.2273C114.309 35.2273 114.022 35.3126 113.776 35.483C113.532 35.6511 113.342 35.889 113.204 36.1968C113.069 36.5022 113.002 36.8609 113.002 37.2728C113.002 37.6942 113.068 38.0611 113.201 38.3736C113.336 38.6861 113.525 38.9288 113.769 39.1016C114.015 39.2744 114.304 39.3609 114.635 39.3609C114.853 39.3609 115.051 39.323 115.228 39.2472C115.406 39.1715 115.556 39.0626 115.679 38.9205C115.802 38.7785 115.89 38.608 115.942 38.4092H116.78C116.733 38.7311 116.616 39.0211 116.429 39.2792C116.244 39.5349 115.999 39.7385 115.694 39.89C115.391 40.0391 115.038 40.1137 114.635 40.1137ZM118.843 36.7188V40.0001H118.005V32.7273H118.843V35.3978H118.914C119.042 35.1161 119.234 34.8923 119.49 34.7266C119.748 34.5585 120.091 34.4745 120.52 34.4745C120.891 34.4745 121.217 34.5491 121.496 34.6982C121.775 34.845 121.992 35.0711 122.146 35.3765C122.302 35.6795 122.38 36.0654 122.38 36.5342V40.0001H121.542V36.591C121.542 36.1577 121.43 35.8227 121.205 35.586C120.982 35.3469 120.673 35.2273 120.278 35.2273C120.003 35.2273 119.757 35.2853 119.539 35.4013C119.324 35.5173 119.154 35.6866 119.028 35.9092C118.905 36.1317 118.843 36.4016 118.843 36.7188ZM123.914 40.0001V34.5455H124.752V40.0001H123.914ZM124.34 33.6364C124.176 33.6364 124.035 33.5808 123.917 33.4695C123.801 33.3583 123.743 33.2245 123.743 33.0682C123.743 32.912 123.801 32.7782 123.917 32.667C124.035 32.5557 124.176 32.5001 124.34 32.5001C124.503 32.5001 124.643 32.5557 124.759 32.667C124.877 32.7782 124.936 32.912 124.936 33.0682C124.936 33.2245 124.877 33.3583 124.759 33.4695C124.643 33.5808 124.503 33.6364 124.34 33.6364ZM127.125 36.7188V40.0001H126.287V34.5455H127.096V35.3978H127.167C127.295 35.1208 127.489 34.8983 127.75 34.7302C128.01 34.5597 128.346 34.4745 128.758 34.4745C129.127 34.4745 129.451 34.5503 129.728 34.7018C130.005 34.8509 130.22 35.0782 130.374 35.3836C130.528 35.6866 130.605 36.0701 130.605 36.5342V40.0001H129.767V36.591C129.767 36.1625 129.655 35.8287 129.433 35.5895C129.21 35.3481 128.905 35.2273 128.517 35.2273C128.249 35.2273 128.01 35.2853 127.799 35.4013C127.591 35.5173 127.426 35.6866 127.306 35.9092C127.185 36.1317 127.125 36.4016 127.125 36.7188ZM134.423 40.1137C133.898 40.1137 133.444 39.9977 133.063 39.7657C132.684 39.5313 132.392 39.2046 132.186 38.7856C131.982 38.3642 131.881 37.8741 131.881 37.3154C131.881 36.7567 131.982 36.2643 132.186 35.8381C132.392 35.4096 132.678 35.0758 133.045 34.8367C133.415 34.5952 133.845 34.4745 134.338 34.4745C134.622 34.4745 134.903 34.5218 135.18 34.6165C135.456 34.7112 135.709 34.8651 135.936 35.0782C136.163 35.2889 136.344 35.5682 136.479 35.9163C136.614 36.2643 136.682 36.6928 136.682 37.2018V37.5569H132.477V36.8324H135.829C135.829 36.5247 135.768 36.2501 135.645 36.0086C135.524 35.7671 135.351 35.5765 135.126 35.4369C134.904 35.2972 134.641 35.2273 134.338 35.2273C134.004 35.2273 133.715 35.3102 133.471 35.4759C133.23 35.6393 133.044 35.8523 132.914 36.1151C132.784 36.3779 132.719 36.6596 132.719 36.9603V37.4432C132.719 37.8552 132.79 38.2044 132.932 38.4908C133.076 38.7749 133.276 38.9915 133.532 39.1407C133.787 39.2875 134.085 39.3609 134.423 39.3609C134.643 39.3609 134.842 39.3301 135.02 39.2685C135.2 39.2046 135.355 39.1099 135.485 38.9844C135.615 38.8566 135.716 38.698 135.787 38.5086L136.596 38.7359C136.511 39.0105 136.368 39.252 136.167 39.4603C135.965 39.6663 135.717 39.8272 135.421 39.9432C135.125 40.0569 134.792 40.1137 134.423 40.1137ZM138.07 32.7273H139.121L141.593 38.7643H141.678L144.15 32.7273H145.201V40.0001H144.377V34.4745H144.306L142.033 40.0001H141.238L138.965 34.4745H138.894V40.0001H138.07V32.7273ZM150.29 37.7699V34.5455H151.129V40.0001H150.29V39.0768H150.234C150.106 39.3538 149.907 39.5893 149.637 39.7834C149.367 39.9752 149.026 40.0711 148.614 40.0711C148.273 40.0711 147.97 39.9965 147.705 39.8474C147.44 39.6958 147.232 39.4686 147.08 39.1655C146.929 38.8601 146.853 38.4754 146.853 38.0114V34.5455H147.691V37.9546C147.691 38.3523 147.802 38.6696 148.025 38.9063C148.25 39.1431 148.536 39.2614 148.884 39.2614C149.093 39.2614 149.304 39.2082 149.52 39.1016C149.738 38.9951 149.92 38.8317 150.067 38.6116C150.216 38.3914 150.29 38.1109 150.29 37.7699ZM156.527 35.7671L155.774 35.9802C155.727 35.8547 155.657 35.7328 155.565 35.6144C155.475 35.4937 155.352 35.3942 155.195 35.3161C155.039 35.238 154.839 35.1989 154.595 35.1989C154.262 35.1989 153.983 35.2759 153.761 35.4297C153.541 35.5813 153.431 35.7742 153.431 36.0086C153.431 36.2169 153.506 36.3815 153.658 36.5022C153.809 36.6229 154.046 36.7235 154.368 36.804L155.178 37.0029C155.665 37.1213 156.029 37.3024 156.268 37.5462C156.507 37.7877 156.627 38.099 156.627 38.4802C156.627 38.7927 156.537 39.072 156.357 39.3182C156.179 39.5645 155.931 39.7586 155.611 39.9006C155.291 40.0427 154.92 40.1137 154.496 40.1137C153.94 40.1137 153.479 39.993 153.115 39.7515C152.75 39.51 152.519 39.1573 152.422 38.6932L153.218 38.4944C153.293 38.7879 153.436 39.0081 153.647 39.1549C153.86 39.3017 154.138 39.3751 154.482 39.3751C154.872 39.3751 155.182 39.2922 155.412 39.1265C155.644 38.9584 155.76 38.7572 155.76 38.5228C155.76 38.3334 155.694 38.1748 155.561 38.0469C155.429 37.9167 155.225 37.8197 154.95 37.7557L154.041 37.5427C153.542 37.4243 153.175 37.2408 152.941 36.9922C152.709 36.7413 152.593 36.4276 152.593 36.0512C152.593 35.7434 152.679 35.4712 152.852 35.2344C153.027 34.9977 153.265 34.8119 153.566 34.6769C153.869 34.542 154.212 34.4745 154.595 34.4745C155.135 34.4745 155.559 34.5929 155.867 34.8296C156.177 35.0663 156.397 35.3788 156.527 35.7671ZM157.888 40.0001V34.5455H158.726V40.0001H157.888ZM158.314 33.6364C158.151 33.6364 158.01 33.5808 157.892 33.4695C157.776 33.3583 157.718 33.2245 157.718 33.0682C157.718 32.912 157.776 32.7782 157.892 32.667C158.01 32.5557 158.151 32.5001 158.314 32.5001C158.478 32.5001 158.617 32.5557 158.733 32.667C158.852 32.7782 158.911 32.912 158.911 33.0682C158.911 33.2245 158.852 33.3583 158.733 33.4695C158.617 33.5808 158.478 33.6364 158.314 33.6364ZM162.477 40.1137C161.966 40.1137 161.525 39.993 161.156 39.7515C160.787 39.51 160.503 39.1774 160.304 38.7536C160.105 38.3298 160.006 37.8457 160.006 37.3012C160.006 36.7472 160.107 36.2583 160.311 35.8346C160.517 35.4084 160.803 35.0758 161.17 34.8367C161.54 34.5952 161.97 34.4745 162.463 34.4745C162.846 34.4745 163.192 34.5455 163.5 34.6876C163.808 34.8296 164.06 35.0285 164.256 35.2842C164.453 35.5398 164.575 35.8381 164.622 36.179H163.784C163.72 35.9305 163.578 35.7103 163.358 35.5185C163.14 35.3244 162.846 35.2273 162.477 35.2273C162.15 35.2273 161.864 35.3126 161.618 35.483C161.374 35.6511 161.183 35.889 161.046 36.1968C160.911 36.5022 160.844 36.8609 160.844 37.2728C160.844 37.6942 160.91 38.0611 161.042 38.3736C161.177 38.6861 161.367 38.9288 161.611 39.1016C161.857 39.2744 162.146 39.3609 162.477 39.3609C162.695 39.3609 162.893 39.323 163.07 39.2472C163.248 39.1715 163.398 39.0626 163.521 38.9205C163.644 38.7785 163.732 38.608 163.784 38.4092H164.622C164.575 38.7311 164.457 39.0211 164.27 39.2792C164.086 39.5349 163.841 39.7385 163.535 39.89C163.232 40.0391 162.88 40.1137 162.477 40.1137Z" fill="#FFF9F9"/>
<ellipse cx="36" cy="28.5001" rx="36" ry="26.5" fill="url(#paint31_linear_243_45)" fill-opacity="0.4"/>
<mask id="path-34-inside-1_243_45" fill="white">
<path d="M23.9896 21.3572C25.4065 24.1445 27.6837 26.3871 30.4742 27.7434C33.2648 29.0998 36.4159 29.4957 39.4477 28.8707C42.4794 28.2457 45.2257 26.6341 47.2684 24.2814C49.311 21.9287 50.538 18.9638 50.7625 15.8381C50.9871 12.7124 50.1968 9.59724 48.5122 6.96704C46.8275 4.33684 44.3407 2.3357 41.4305 1.26836C38.5203 0.201018 35.3462 0.125966 32.3915 1.05463C29.4367 1.98329 26.8633 3.86479 25.0631 6.41259L31.1306 10.8127C31.9846 9.60401 33.2054 8.71142 34.6072 8.27086C36.0089 7.83029 37.5147 7.8659 38.8953 8.37225C40.2759 8.8786 41.4557 9.82795 42.2549 11.0757C43.0541 12.3235 43.429 13.8013 43.3225 15.2842C43.2159 16.767 42.6338 18.1736 41.6648 19.2897C40.6958 20.4059 39.3929 21.1704 37.9547 21.4669C36.5164 21.7634 35.0215 21.5756 33.6976 20.9321C32.3738 20.2887 31.2935 19.2248 30.6213 17.9025L23.9896 21.3572Z"/>
</mask>
<path d="M23.9896 21.3572C25.4065 24.1445 27.6837 26.3871 30.4742 27.7434C33.2648 29.0998 36.4159 29.4957 39.4477 28.8707C42.4794 28.2457 45.2257 26.6341 47.2684 24.2814C49.311 21.9287 50.538 18.9638 50.7625 15.8381C50.9871 12.7124 50.1968 9.59724 48.5122 6.96704C46.8275 4.33684 44.3407 2.3357 41.4305 1.26836C38.5203 0.201018 35.3462 0.125966 32.3915 1.05463C29.4367 1.98329 26.8633 3.86479 25.0631 6.41259L31.1306 10.8127C31.9846 9.60401 33.2054 8.71142 34.6072 8.27086C36.0089 7.83029 37.5147 7.8659 38.8953 8.37225C40.2759 8.8786 41.4557 9.82795 42.2549 11.0757C43.0541 12.3235 43.429 13.8013 43.3225 15.2842C43.2159 16.767 42.6338 18.1736 41.6648 19.2897C40.6958 20.4059 39.3929 21.1704 37.9547 21.4669C36.5164 21.7634 35.0215 21.5756 33.6976 20.9321C32.3738 20.2887 31.2935 19.2248 30.6213 17.9025L23.9896 21.3572Z" fill="url(#paint32_linear_243_45)" fill-opacity="0.2" stroke="url(#paint33_linear_243_45)" stroke-opacity="0.1" stroke-width="2" mask="url(#path-34-inside-1_243_45)"/>
<defs>
<linearGradient id="paint0_linear_243_45" x1="5" y1="27.5001" x2="4" y2="27.5001" gradientUnits="userSpaceOnUse">
<stop stop-color="#F21E1E" stop-opacity="0.78"/>
<stop offset="0.552083" stop-color="#1DCDCD" stop-opacity="0.54"/>
<stop offset="1" stop-color="#1024D8" stop-opacity="0.93"/>
</linearGradient>
<linearGradient id="paint1_linear_243_45" x1="7" y1="31.5001" x2="6" y2="31.5001" gradientUnits="userSpaceOnUse">
<stop stop-color="#F21E1E" stop-opacity="0.78"/>
<stop offset="0.552083" stop-color="#1DCDCD" stop-opacity="0.54"/>
<stop offset="1" stop-color="#1024D8" stop-opacity="0.93"/>
</linearGradient>
<linearGradient id="paint2_linear_243_45" x1="9" y1="33.0001" x2="8" y2="33.0001" gradientUnits="userSpaceOnUse">
<stop stop-color="#F21E1E" stop-opacity="0.78"/>
<stop offset="0.552083" stop-color="#1DCDCD" stop-opacity="0.54"/>
<stop offset="1" stop-color="#1024D8" stop-opacity="0.93"/>
</linearGradient>
<linearGradient id="paint3_linear_243_45" x1="11" y1="31.5001" x2="10" y2="31.5001" gradientUnits="userSpaceOnUse">
<stop stop-color="#F21E1E" stop-opacity="0.78"/>
<stop offset="0.552083" stop-color="#1DCDCD" stop-opacity="0.54"/>
<stop offset="1" stop-color="#1024D8" stop-opacity="0.93"/>
</linearGradient>
<linearGradient id="paint4_linear_243_45" x1="13" y1="34.5001" x2="12" y2="34.5001" gradientUnits="userSpaceOnUse">
<stop stop-color="#F21E1E" stop-opacity="0.78"/>
<stop offset="0.552083" stop-color="#1DCDCD" stop-opacity="0.54"/>
<stop offset="1" stop-color="#1024D8" stop-opacity="0.93"/>
</linearGradient>
<linearGradient id="paint5_linear_243_45" x1="15" y1="37.0001" x2="14" y2="37.0001" gradientUnits="userSpaceOnUse">
<stop stop-color="#F21E1E" stop-opacity="0.78"/>
<stop offset="0.552083" stop-color="#1DCDCD" stop-opacity="0.54"/>
<stop offset="1" stop-color="#1024D8" stop-opacity="0.93"/>
</linearGradient>
<linearGradient id="paint6_linear_243_45" x1="17" y1="35.0001" x2="16" y2="35.0001" gradientUnits="userSpaceOnUse">
<stop stop-color="#F21E1E" stop-opacity="0.78"/>
<stop offset="0.552083" stop-color="#1DCDCD" stop-opacity="0.54"/>
<stop offset="1" stop-color="#1024D8" stop-opacity="0.93"/>
</linearGradient>
<linearGradient id="paint7_linear_243_45" x1="19" y1="34.5001" x2="18" y2="34.5001" gradientUnits="userSpaceOnUse">
<stop stop-color="#F21E1E" stop-opacity="0.78"/>
<stop offset="0.552083" stop-color="#1DCDCD" stop-opacity="0.54"/>
<stop offset="1" stop-color="#1024D8" stop-opacity="0.93"/>
</linearGradient>
<linearGradient id="paint8_linear_243_45" x1="21" y1="29.5001" x2="20" y2="29.5001" gradientUnits="userSpaceOnUse">
<stop stop-color="#F21E1E" stop-opacity="0.78"/>
<stop offset="0.552083" stop-color="#1DCDCD" stop-opacity="0.54"/>
<stop offset="1" stop-color="#1024D8" stop-opacity="0.93"/>
</linearGradient>
<linearGradient id="paint9_linear_243_45" x1="23" y1="27.5001" x2="22" y2="27.5001" gradientUnits="userSpaceOnUse">
<stop stop-color="#F21E1E" stop-opacity="0.78"/>
<stop offset="0.552083" stop-color="#1DCDCD" stop-opacity="0.54"/>
<stop offset="1" stop-color="#1024D8" stop-opacity="0.93"/>
</linearGradient>
<linearGradient id="paint10_linear_243_45" x1="25" y1="33.0001" x2="24" y2="33.0001" gradientUnits="userSpaceOnUse">
<stop stop-color="#F21E1E" stop-opacity="0.78"/>
<stop offset="0.552083" stop-color="#1DCDCD" stop-opacity="0.54"/>
<stop offset="1" stop-color="#1024D8" stop-opacity="0.93"/>
</linearGradient>
<linearGradient id="paint11_linear_243_45" x1="27" y1="35.0001" x2="26" y2="35.0001" gradientUnits="userSpaceOnUse">
<stop stop-color="#F21E1E" stop-opacity="0.78"/>
<stop offset="0.552083" stop-color="#1DCDCD" stop-opacity="0.54"/>
<stop offset="1" stop-color="#1024D8" stop-opacity="0.93"/>
</linearGradient>
<linearGradient id="paint12_linear_243_45" x1="29" y1="37.5001" x2="28" y2="37.5001" gradientUnits="userSpaceOnUse">
<stop stop-color="#7E0B0B" stop-opacity="0.76"/>
<stop offset="0.546875" stop-color="#0CE5F3" stop-opacity="0.453125"/>
<stop offset="1" stop-color="#1C1069" stop-opacity="0.37"/>
</linearGradient>
<linearGradient id="paint13_linear_243_45" x1="31" y1="33.0001" x2="30" y2="33.0001" gradientUnits="userSpaceOnUse">
<stop stop-color="#F21E1E" stop-opacity="0.78"/>
<stop offset="0.552083" stop-color="#1DCDCD" stop-opacity="0.54"/>
<stop offset="1" stop-color="#1024D8" stop-opacity="0.93"/>
</linearGradient>
<linearGradient id="paint14_linear_243_45" x1="33" y1="31.5001" x2="32" y2="31.5001" gradientUnits="userSpaceOnUse">
<stop stop-color="#F21E1E" stop-opacity="0.78"/>
<stop offset="0.552083" stop-color="#1DCDCD" stop-opacity="0.54"/>
<stop offset="1" stop-color="#1024D8" stop-opacity="0.93"/>
</linearGradient>
<linearGradient id="paint15_linear_243_45" x1="35" y1="33.0001" x2="34" y2="33.0001" gradientUnits="userSpaceOnUse">
<stop stop-color="#F21E1E" stop-opacity="0.78"/>
<stop offset="0.552083" stop-color="#1DCDCD" stop-opacity="0.54"/>
<stop offset="1" stop-color="#1024D8" stop-opacity="0.93"/>
</linearGradient>
<linearGradient id="paint16_linear_243_45" x1="37" y1="35.0001" x2="36" y2="35.0001" gradientUnits="userSpaceOnUse">
<stop stop-color="#F21E1E" stop-opacity="0.78"/>
<stop offset="0.552083" stop-color="#1DCDCD" stop-opacity="0.54"/>
<stop offset="1" stop-color="#1024D8" stop-opacity="0.93"/>
</linearGradient>
<linearGradient id="paint17_linear_243_45" x1="39" y1="37.5001" x2="38" y2="37.5001" gradientUnits="userSpaceOnUse">
<stop stop-color="#7E0B0B" stop-opacity="0.76"/>
<stop offset="0.546875" stop-color="#0CE5F3" stop-opacity="0.453125"/>
<stop offset="1" stop-color="#1C1069" stop-opacity="0.37"/>
</linearGradient>
<linearGradient id="paint18_linear_243_45" x1="41" y1="36.0001" x2="40" y2="36.0001" gradientUnits="userSpaceOnUse">
<stop stop-color="#F21E1E" stop-opacity="0.78"/>
<stop offset="0.552083" stop-color="#1DCDCD" stop-opacity="0.54"/>
<stop offset="1" stop-color="#1024D8" stop-opacity="0.93"/>
</linearGradient>
<linearGradient id="paint19_linear_243_45" x1="43" y1="33.0001" x2="42" y2="33.0001" gradientUnits="userSpaceOnUse">
<stop stop-color="#F21E1E" stop-opacity="0.78"/>
<stop offset="0.552083" stop-color="#1DCDCD" stop-opacity="0.54"/>
<stop offset="1" stop-color="#1024D8" stop-opacity="0.93"/>
</linearGradient>
<linearGradient id="paint20_linear_243_45" x1="45" y1="31.5001" x2="44" y2="31.5001" gradientUnits="userSpaceOnUse">
<stop stop-color="#F21E1E" stop-opacity="0.78"/>
<stop offset="0.552083" stop-color="#1DCDCD" stop-opacity="0.54"/>
<stop offset="1" stop-color="#1024D8" stop-opacity="0.93"/>
</linearGradient>
<linearGradient id="paint21_linear_243_45" x1="47" y1="29.5001" x2="46" y2="29.5001" gradientUnits="userSpaceOnUse">
<stop stop-color="#F21E1E" stop-opacity="0.78"/>
<stop offset="0.552083" stop-color="#1DCDCD" stop-opacity="0.54"/>
<stop offset="1" stop-color="#1024D8" stop-opacity="0.93"/>
</linearGradient>
<linearGradient id="paint22_linear_243_45" x1="49" y1="33.0001" x2="48" y2="33.0001" gradientUnits="userSpaceOnUse">
<stop stop-color="#F21E1E" stop-opacity="0.78"/>
<stop offset="0.552083" stop-color="#1DCDCD" stop-opacity="0.54"/>
<stop offset="1" stop-color="#1024D8" stop-opacity="0.93"/>
</linearGradient>
<linearGradient id="paint23_linear_243_45" x1="51" y1="35.0001" x2="50" y2="35.0001" gradientUnits="userSpaceOnUse">
<stop stop-color="#F21E1E" stop-opacity="0.78"/>
<stop offset="0.552083" stop-color="#1DCDCD" stop-opacity="0.54"/>
<stop offset="1" stop-color="#1024D8" stop-opacity="0.93"/>
</linearGradient>
<linearGradient id="paint24_linear_243_45" x1="53" y1="37.5001" x2="52" y2="37.5001" gradientUnits="userSpaceOnUse">
<stop stop-color="#F21E1E" stop-opacity="0.78"/>
<stop offset="0.552083" stop-color="#1DCDCD" stop-opacity="0.54"/>
<stop offset="1" stop-color="#1024D8" stop-opacity="0.93"/>
</linearGradient>
<linearGradient id="paint25_linear_243_45" x1="55" y1="34.0001" x2="54" y2="34.0001" gradientUnits="userSpaceOnUse">
<stop stop-color="#F21E1E" stop-opacity="0.78"/>
<stop offset="0.552083" stop-color="#1DCDCD" stop-opacity="0.54"/>
<stop offset="1" stop-color="#1024D8" stop-opacity="0.93"/>
</linearGradient>
<linearGradient id="paint26_linear_243_45" x1="57" y1="36.0001" x2="56" y2="36.0001" gradientUnits="userSpaceOnUse">
<stop stop-color="#F21E1E" stop-opacity="0.78"/>
<stop offset="0.552083" stop-color="#1DCDCD" stop-opacity="0.54"/>
<stop offset="1" stop-color="#1024D8" stop-opacity="0.93"/>
</linearGradient>
<linearGradient id="paint27_linear_243_45" x1="59" y1="33.0001" x2="58" y2="33.0001" gradientUnits="userSpaceOnUse">
<stop stop-color="#F21E1E" stop-opacity="0.78"/>
<stop offset="0.552083" stop-color="#1DCDCD" stop-opacity="0.54"/>
<stop offset="1" stop-color="#1024D8" stop-opacity="0.93"/>
</linearGradient>
<linearGradient id="paint28_linear_243_45" x1="61" y1="31.0001" x2="60" y2="31.0001" gradientUnits="userSpaceOnUse">
<stop stop-color="#F21E1E" stop-opacity="0.78"/>
<stop offset="0.552083" stop-color="#1DCDCD" stop-opacity="0.54"/>
<stop offset="1" stop-color="#1024D8" stop-opacity="0.93"/>
</linearGradient>
<linearGradient id="paint29_linear_243_45" x1="63" y1="29.5001" x2="62" y2="29.5001" gradientUnits="userSpaceOnUse">
<stop stop-color="#F21E1E" stop-opacity="0.78"/>
<stop offset="0.552083" stop-color="#1DCDCD" stop-opacity="0.54"/>
<stop offset="1" stop-color="#1024D8" stop-opacity="0.93"/>
</linearGradient>
<linearGradient id="paint30_linear_243_45" x1="65" y1="27.5001" x2="64" y2="27.5001" gradientUnits="userSpaceOnUse">
<stop stop-color="#F21E1E" stop-opacity="0.78"/>
<stop offset="0.552083" stop-color="#1DCDCD" stop-opacity="0.54"/>
<stop offset="1" stop-color="#1024D8" stop-opacity="0.93"/>
</linearGradient>
<linearGradient id="paint31_linear_243_45" x1="36" y1="2.00006" x2="36" y2="55.0001" gradientUnits="userSpaceOnUse">
<stop stop-color="#DE9797"/>
<stop offset="1" stop-color="#2610AE" stop-opacity="0.29"/>
</linearGradient>
<linearGradient id="paint32_linear_243_45" x1="37.0275" y1="29.1534" x2="36.1866" y2="0.41507" gradientUnits="userSpaceOnUse">
<stop stop-color="#355BE2" stop-opacity="0.63"/>
<stop offset="1" stop-color="#EB1044" stop-opacity="0.12"/>
</linearGradient>
<linearGradient id="paint33_linear_243_45" x1="37.0275" y1="29.1534" x2="36.1866" y2="0.41507" gradientUnits="userSpaceOnUse">
<stop stop-color="#EC2121" stop-opacity="0.43"/>
<stop offset="1" stop-color="#3037F3" stop-opacity="0.37"/>
</linearGradient>
</defs>
</svg>
